<mxfile host="app.diagrams.net" agent="Mozilla/5.0 (Windows NT 10.0; Win64; x64) AppleWebKit/537.36 (KHTML, like Gecko) Chrome/128.0.0.0 Safari/537.36" version="24.7.10">
  <diagram name="Page-1" id="n0Y_0H4SvOydqVqyil9R">
    <mxGraphModel dx="1434" dy="752" grid="1" gridSize="10" guides="1" tooltips="1" connect="1" arrows="1" fold="1" page="1" pageScale="1" pageWidth="850" pageHeight="1100" math="0" shadow="0">
      <root>
        <mxCell id="0" />
        <mxCell id="1" parent="0" />
        <mxCell id="rFYxMl4Rsz5ef-A3Y_FE-1" value="Splunk Server&lt;div&gt;IP: 192.168.10.10&lt;/div&gt;" style="sketch=0;outlineConnect=0;fontColor=#232F3E;gradientColor=none;fillColor=#232F3D;strokeColor=none;dashed=0;verticalLabelPosition=bottom;verticalAlign=top;align=center;html=1;fontSize=12;fontStyle=0;aspect=fixed;pointerEvents=1;shape=mxgraph.aws4.traditional_server;" vertex="1" parent="1">
          <mxGeometry x="155" y="640" width="45" height="78" as="geometry" />
        </mxCell>
        <mxCell id="rFYxMl4Rsz5ef-A3Y_FE-21" style="rounded=0;orthogonalLoop=1;jettySize=auto;html=1;dashed=1;dashPattern=1 4;endArrow=none;endFill=0;" edge="1" parent="1" source="rFYxMl4Rsz5ef-A3Y_FE-2" target="rFYxMl4Rsz5ef-A3Y_FE-1">
          <mxGeometry relative="1" as="geometry" />
        </mxCell>
        <mxCell id="rFYxMl4Rsz5ef-A3Y_FE-2" value="Active Directory&lt;div&gt;IP: 192.168.10.7&lt;/div&gt;&lt;div&gt;Splunk Universal Forwarder&lt;/div&gt;&lt;div&gt;Sysmon&lt;/div&gt;" style="sketch=0;outlineConnect=0;fontColor=#232F3E;gradientColor=none;fillColor=#232F3D;strokeColor=none;dashed=0;verticalLabelPosition=bottom;verticalAlign=top;align=center;html=1;fontSize=12;fontStyle=0;aspect=fixed;pointerEvents=1;shape=mxgraph.aws4.traditional_server;" vertex="1" parent="1">
          <mxGeometry x="155" y="840" width="45" height="78" as="geometry" />
        </mxCell>
        <mxCell id="rFYxMl4Rsz5ef-A3Y_FE-20" style="rounded=0;orthogonalLoop=1;jettySize=auto;html=1;dashed=1;dashPattern=1 4;endArrow=none;endFill=0;fillColor=#d5e8d4;strokeColor=#82b366;" edge="1" parent="1" source="rFYxMl4Rsz5ef-A3Y_FE-3" target="rFYxMl4Rsz5ef-A3Y_FE-1">
          <mxGeometry relative="1" as="geometry" />
        </mxCell>
        <mxCell id="rFYxMl4Rsz5ef-A3Y_FE-3" value="Windows 10&lt;div&gt;IP: DHCP&lt;/div&gt;&lt;div&gt;Splunk Universal Forwarder&lt;/div&gt;&lt;div&gt;Sysmon&lt;/div&gt;&lt;div&gt;Atomic Red Team&lt;/div&gt;" style="verticalLabelPosition=bottom;html=1;verticalAlign=top;align=center;strokeColor=none;fillColor=#00BEF2;shape=mxgraph.azure.computer;pointerEvents=1;" vertex="1" parent="1">
          <mxGeometry x="400" y="930" width="50" height="45" as="geometry" />
        </mxCell>
        <mxCell id="rFYxMl4Rsz5ef-A3Y_FE-4" value="Kali Linux&amp;nbsp;&lt;div&gt;IP: 192.168.10.250&lt;/div&gt;" style="verticalLabelPosition=bottom;html=1;verticalAlign=top;align=center;strokeColor=#b85450;fillColor=#f8cecc;shape=mxgraph.azure.computer;pointerEvents=1;" vertex="1" parent="1">
          <mxGeometry x="600" y="752.5" width="50" height="45" as="geometry" />
        </mxCell>
        <mxCell id="rFYxMl4Rsz5ef-A3Y_FE-14" style="edgeStyle=orthogonalEdgeStyle;rounded=0;orthogonalLoop=1;jettySize=auto;html=1;" edge="1" parent="1" source="rFYxMl4Rsz5ef-A3Y_FE-5">
          <mxGeometry relative="1" as="geometry">
            <mxPoint x="425" y="690" as="targetPoint" />
          </mxGeometry>
        </mxCell>
        <mxCell id="rFYxMl4Rsz5ef-A3Y_FE-5" value="" style="sketch=0;points=[[0.015,0.015,0],[0.985,0.015,0],[0.985,0.985,0],[0.015,0.985,0],[0.25,0,0],[0.5,0,0],[0.75,0,0],[1,0.25,0],[1,0.5,0],[1,0.75,0],[0.75,1,0],[0.5,1,0],[0.25,1,0],[0,0.75,0],[0,0.5,0],[0,0.25,0]];verticalLabelPosition=bottom;html=1;verticalAlign=top;aspect=fixed;align=center;pointerEvents=1;shape=mxgraph.cisco19.rect;prIcon=l2_switch;fillColor=#FAFAFA;strokeColor=#005073;" vertex="1" parent="1">
          <mxGeometry x="400" y="750" width="50" height="50" as="geometry" />
        </mxCell>
        <mxCell id="rFYxMl4Rsz5ef-A3Y_FE-18" style="edgeStyle=orthogonalEdgeStyle;rounded=0;orthogonalLoop=1;jettySize=auto;html=1;" edge="1" parent="1" source="rFYxMl4Rsz5ef-A3Y_FE-6" target="rFYxMl4Rsz5ef-A3Y_FE-7">
          <mxGeometry relative="1" as="geometry" />
        </mxCell>
        <mxCell id="rFYxMl4Rsz5ef-A3Y_FE-6" value="" style="sketch=0;points=[[0.5,0,0],[1,0.5,0],[0.5,1,0],[0,0.5,0],[0.145,0.145,0],[0.8555,0.145,0],[0.855,0.8555,0],[0.145,0.855,0]];verticalLabelPosition=bottom;html=1;verticalAlign=top;aspect=fixed;align=center;pointerEvents=1;shape=mxgraph.cisco19.rect;prIcon=router;fillColor=#FAFAFA;strokeColor=#005073;" vertex="1" parent="1">
          <mxGeometry x="400" y="640" width="50" height="50" as="geometry" />
        </mxCell>
        <mxCell id="rFYxMl4Rsz5ef-A3Y_FE-7" value="Internet" style="ellipse;shape=cloud;whiteSpace=wrap;html=1;" vertex="1" parent="1">
          <mxGeometry x="370" y="500" width="110" height="70" as="geometry" />
        </mxCell>
        <mxCell id="rFYxMl4Rsz5ef-A3Y_FE-8" style="edgeStyle=orthogonalEdgeStyle;rounded=0;orthogonalLoop=1;jettySize=auto;html=1;entryX=0.5;entryY=1;entryDx=0;entryDy=0;entryPerimeter=0;" edge="1" parent="1" source="rFYxMl4Rsz5ef-A3Y_FE-3" target="rFYxMl4Rsz5ef-A3Y_FE-5">
          <mxGeometry relative="1" as="geometry" />
        </mxCell>
        <mxCell id="rFYxMl4Rsz5ef-A3Y_FE-11" style="edgeStyle=orthogonalEdgeStyle;rounded=0;orthogonalLoop=1;jettySize=auto;html=1;entryX=1;entryY=0.5;entryDx=0;entryDy=0;entryPerimeter=0;" edge="1" parent="1" source="rFYxMl4Rsz5ef-A3Y_FE-4" target="rFYxMl4Rsz5ef-A3Y_FE-5">
          <mxGeometry relative="1" as="geometry" />
        </mxCell>
        <mxCell id="rFYxMl4Rsz5ef-A3Y_FE-12" style="edgeStyle=orthogonalEdgeStyle;rounded=0;orthogonalLoop=1;jettySize=auto;html=1;entryX=0;entryY=0.5;entryDx=0;entryDy=0;entryPerimeter=0;" edge="1" parent="1" source="rFYxMl4Rsz5ef-A3Y_FE-1" target="rFYxMl4Rsz5ef-A3Y_FE-5">
          <mxGeometry relative="1" as="geometry" />
        </mxCell>
        <mxCell id="rFYxMl4Rsz5ef-A3Y_FE-13" style="edgeStyle=orthogonalEdgeStyle;rounded=0;orthogonalLoop=1;jettySize=auto;html=1;entryX=0;entryY=0.5;entryDx=0;entryDy=0;entryPerimeter=0;" edge="1" parent="1" source="rFYxMl4Rsz5ef-A3Y_FE-2" target="rFYxMl4Rsz5ef-A3Y_FE-5">
          <mxGeometry relative="1" as="geometry" />
        </mxCell>
        <mxCell id="rFYxMl4Rsz5ef-A3Y_FE-19" value="Domain: MyAD&lt;div&gt;Network: 192.168.10.0/24&lt;/div&gt;&lt;div&gt;Splunk Server: 192.168.10.10&lt;/div&gt;&lt;div&gt;Active Directory: 192.168.10.7&lt;/div&gt;&lt;div&gt;Attacker: 192.168.10.250&lt;/div&gt;" style="text;html=1;align=center;verticalAlign=middle;resizable=0;points=[];autosize=1;strokeColor=none;fillColor=none;" vertex="1" parent="1">
          <mxGeometry x="110" y="450" width="180" height="90" as="geometry" />
        </mxCell>
      </root>
    </mxGraphModel>
  </diagram>
</mxfile>
